<?xml version="1.0" encoding="UTF-8"?>
<svg width="1e3" height="1e3" version="1.1" xmlns="http://www.w3.org/2000/svg"><path d="m821.5 623.5v144q0 67-47 114t-114 47h-464q-67 0-114-47t-47-114v-464q0-66 47-113t114-48h142q7 0 13 6t5 12q0 15-15 18-43 15-74 34-5 2-9 2h-62q-37 0-63 26t-27 63v464q0 37 27 63t63 27h464q37 0 63-27t26-63v-119q0-11 10-16 16-7 31-21 8-9 19-4 12 5 12 16zm132-277-214 214q-10 11-25 11-7 0-14-3-22-9-22-33v-107h-89q-181 0-245 73-66 77-41 264 2 13-11 19-5 1-7 1-9 0-14-7-6-8-12-17t-22-39-28-55-21-64-10-68q0-27 2-51t8-50 15-49 27-45 38-42 52-34 70-27 89-17 110-6h89v-107q0-24 22-33 7-3 14-3 14 0 25 11l214 214q11 10 11 25t-11 25z" glyph-name="export" horiz-adv-x="928.6" unicode=""/></svg>
